<svg width="20" height="19" viewBox="0 0 20 19" fill="none" xmlns="http://www.w3.org/2000/svg">
<path fill-rule="evenodd" clip-rule="evenodd" d="M6.66667 4.83333C6.66667 4.375 6.29167 4 5.83333 4C5.375 4 5 4.375 5 4.83333V13.1667C5 13.625 5.375 14 5.83333 14C6.29167 14 6.66667 13.625 6.66667 13.1667V4.83333ZM11.5167 9L14.75 12.2417C15.075 12.5583 15.075 13.0917 14.7583 13.4083C14.4333 13.7333 13.9083 13.7333 13.5833 13.4083L9.75833 9.58333C9.43333 9.25833 9.43333 8.73333 9.75833 8.40833L13.5833 4.58333C13.9083 4.25833 14.4333 4.25833 14.7583 4.58333C15.0833 4.90833 15.0833 5.43333 14.7583 5.75833L11.5167 9Z" fill="#E2DCE2"/>
</svg>
