<svg width="20" height="19" viewBox="0 0 20 19" fill="none" xmlns="http://www.w3.org/2000/svg">
<path fill-rule="evenodd" clip-rule="evenodd" d="M14.9999 4.83333C14.9999 4.375 14.6249 4 14.1666 4C13.7082 4 13.3332 4.375 13.3332 4.83333V13.1667C13.3332 13.625 13.7082 14 14.1666 14C14.6249 14 14.9999 13.625 14.9999 13.1667V4.83333ZM8.48322 9L5.24155 5.75833C4.92489 5.44167 4.92489 4.90833 5.24155 4.58333C5.56655 4.25833 6.09155 4.25833 6.41655 4.58333L10.2416 8.41667C10.5666 8.74167 10.5666 9.26667 10.2416 9.59167L6.41655 13.4167C6.09155 13.7417 5.56655 13.7417 5.24155 13.4167C4.91655 13.0917 4.91655 12.5667 5.24155 12.2417L8.48322 9Z" fill="#1C1E22" fill-opacity="0.5"/>
</svg>
