<svg width="24" height="24" viewBox="0 0 24 24" fill="none" xmlns="http://www.w3.org/2000/svg">
<path fill-rule="evenodd" clip-rule="evenodd" d="M14.7099 14H15.4999L19.7399 18.26C20.1499 18.67 20.1499 19.34 19.7399 19.75C19.3299 20.16 18.6599 20.16 18.2499 19.75L13.9999 15.5V14.71L13.7299 14.43C12.3299 15.63 10.4199 16.25 8.38989 15.91C5.60989 15.44 3.38989 13.12 3.04989 10.32C2.52989 6.09002 6.08989 2.53002 10.3199 3.05002C13.1199 3.39002 15.4399 5.61002 15.9099 8.39002C16.2499 10.42 15.6299 12.33 14.4299 13.73L14.7099 14ZM4.99989 9.50002C4.99989 11.99 7.00989 14 9.49989 14C11.9899 14 13.9999 11.99 13.9999 9.50002C13.9999 7.01002 11.9899 5.00002 9.49989 5.00002C7.00989 5.00002 4.99989 7.01002 4.99989 9.50002Z" fill="#1C1E22" fill-opacity="0.5"/>
</svg>
