<svg width="154" height="92" viewBox="0 0 154 92" fill="none" xmlns="http://www.w3.org/2000/svg">
<g clip-path="url(#clip0_9_2834)">
<path d="M33.3047 48.5271L35.2172 54.1126C36.2519 57.1329 37.1757 59.5484 37.2962 59.5484C37.2982 59.5484 37.2999 59.5476 37.3015 59.5463C37.4338 59.43 41.1771 48.619 41.1771 48.619H48.4321L39.6794 73.9828H34.6368C34.6368 73.9828 29.2546 58.5233 29.2766 58.4645L23.6584 73.788H18.6666L10.0241 48.5271L17.2438 48.5317C17.2438 48.5317 21.1987 59.6805 21.2514 59.6805L21.2518 59.6801L25.1981 48.5269H33.3047M7.55933 46.7706L8.35365 49.0924L16.9961 74.3531L17.4031 75.543H18.6668H23.6586H24.8934L25.3165 74.3891L29.2175 63.7495C29.5537 64.7222 29.917 65.7706 30.2803 66.8181C31.6234 70.6911 32.9694 74.5569 32.9694 74.5569L33.3806 75.7378H34.637H39.6796H40.9396L41.3485 74.5525L50.1013 49.1889L50.9035 46.864H48.4321H41.1771H39.9185L39.5086 48.0478C38.8526 49.9421 37.982 52.442 37.2375 54.5579C37.1252 54.237 37.0083 53.8996 36.8874 53.5464L34.9752 47.9611L34.568 46.7719H33.3047H25.1983H23.9485L23.5335 47.9444L21.2278 54.4612C20.4661 52.3319 19.5831 49.8506 18.9081 47.9477L18.493 46.7776L17.2451 46.7767L10.0254 46.7721L7.55933 46.7706Z" fill="#FFE81F"/>
<path d="M145.039 48.4286L145.023 55.0767C145.023 55.0767 137.822 55.0528 134.161 55.0528C132.943 55.0528 132.117 55.0557 132.078 55.0627C131.447 55.177 131.045 56.511 131.224 57.0965C131.312 57.3927 131.972 58.3601 132.687 59.2486C133.399 60.1373 134.571 61.5917 135.285 62.4797C137.12 64.7571 137.372 65.2066 137.542 66.5142C137.817 68.638 136.807 70.9368 134.932 72.4527C133.053 73.973 133.136 73.9837 119.186 73.9837C118.984 73.9837 118.782 73.9837 118.574 73.9837C110.09 73.9815 105.604 73.9115 104.95 73.7668C103.79 73.5057 101.942 72.0052 97.0558 67.3435C95.2984 65.6683 93.6788 64.2016 93.5957 64.2012C93.5935 64.2012 93.5924 64.2025 93.5924 64.2047L93.5348 73.9842L85.6161 73.9493L85.5673 48.7256H95.5534H103.227C108.55 48.9167 112.152 54.1902 111.435 57.5533C111.272 58.3165 110.857 59.4225 110.513 60.0102C109.805 61.2168 108.003 62.7656 106.54 63.4305C106 63.6736 105.559 63.9566 105.559 64.0575C105.559 64.4326 107.337 66.1742 108.003 66.4508C108.572 66.6876 110.229 66.7402 117.534 66.7402C118.391 66.7402 119.168 66.7406 119.874 66.7406C127.218 66.7406 126.849 66.688 127.416 65.4812C127.813 64.641 127.511 64.1386 124.716 61.0082C121.176 57.5046 121.546 55.8263 121.522 54.5869C121.472 53.1017 122.648 48.4293 128.76 48.4293L145.039 48.4286ZM97.5982 60.0818C100.989 60.0818 101.677 60.0293 102.398 59.7176C104.834 58.6646 104.964 55.5541 102.628 54.1738C102.116 53.8708 101.459 53.8208 97.7837 53.8009L93.531 53.7787C93.5661 53.8116 93.5176 59.8268 93.5176 59.8268C93.5176 59.8268 94.5828 60.0818 97.5982 60.0818ZM146.808 46.6736H145.039H128.76C125.223 46.6736 123.131 48.0618 122 49.2265C120.158 51.1203 119.725 53.5051 119.758 54.6294C119.76 54.7231 119.759 54.8192 119.758 54.9194C119.741 56.7466 120.012 58.8151 123.432 62.2128C124.108 62.97 125.239 64.2396 125.667 64.8705C124.732 64.9848 122.363 64.9848 119.874 64.9848H118.817L117.534 64.9843C113.144 64.9843 109.441 64.9718 108.682 64.8229C108.576 64.754 108.427 64.6355 108.264 64.4942C109.781 63.5652 111.314 62.1252 112.037 60.8939C112.475 60.1452 112.958 58.8662 113.161 57.9174C113.611 55.8059 112.869 53.2588 111.176 51.1019C109.2 48.5855 106.326 47.0799 103.291 46.9711L103.259 46.9698H103.227H95.5527H85.5667H83.7985L83.802 48.7285L83.8507 73.9519L83.8543 75.6957L85.6077 75.7034L93.5264 75.7383L95.2884 75.7459L95.2988 73.9936L95.333 68.135C95.4947 68.2877 95.6619 68.4463 95.8335 68.6099C101.178 73.7082 102.971 75.1207 104.56 75.4781C104.997 75.5748 105.719 75.7352 118.572 75.7387H119.185C126.144 75.7387 129.637 75.7387 131.714 75.5391C134.094 75.3103 134.86 74.7735 136.007 73.8444L136.045 73.8135C138.402 71.9078 139.646 69.0245 139.291 66.2889C139.06 64.5098 138.587 63.7708 136.661 61.382L136.089 60.6712C135.419 59.8378 134.608 58.8313 134.065 58.1539C133.627 57.609 133.283 57.1253 133.075 56.8085C133.348 56.8078 133.702 56.8074 134.16 56.8074C137.777 56.8074 144.944 56.8311 145.016 56.8315L146.782 56.8372L146.787 55.0805L146.803 48.4321L146.808 46.6736ZM95.2933 58.2627C95.2962 57.8194 95.2988 57.3223 95.3017 56.8243C95.3039 56.3855 95.3059 55.9459 95.3065 55.5431L97.7742 55.5559C99.1923 55.5635 101.326 55.5752 101.742 55.6925C102.273 56.013 102.569 56.5086 102.537 57.0219C102.52 57.2992 102.387 57.809 101.694 58.1081C101.308 58.2748 100.693 58.3268 97.5982 58.3268C96.6166 58.3268 95.8593 58.2985 95.2933 58.2627Z" fill="#FFE81F"/>
<path d="M69.5222 48.3253L78.4095 73.7551L71.1678 73.788L69.9656 69.9687L57.0174 69.8654L55.8747 73.6893L48.7058 73.6145L57.4806 48.3362L69.5222 48.3253ZM63.6986 52.0538C63.6803 52.1268 62.5639 55.173 61.4438 58.219C60.3144 61.2903 59.1813 64.3615 59.1656 64.3854C59.1656 64.3856 59.1654 64.3857 59.1656 64.3857C59.1656 64.3857 59.1656 64.3856 59.1656 64.3854C59.1956 64.3767 63.2058 64.3679 65.7761 64.3679C66.9789 64.3679 67.8661 64.3699 67.8826 64.3742C67.8829 64.3751 67.8829 64.3753 67.8829 64.3753C67.8829 64.3753 67.8829 64.3751 67.8829 64.3747C67.8829 64.3747 67.8829 64.3747 67.8826 64.3742C67.8376 64.2582 63.7116 52.2021 63.6986 52.0538C63.6988 52.0529 63.6988 52.0524 63.6988 52.0524C63.6986 52.0524 63.6986 52.0529 63.6986 52.0538ZM70.7767 46.5692L69.5209 46.5703L57.4793 46.5815L56.2228 46.5826L55.8128 47.7641L47.0379 73.0424L46.2388 75.3445L48.6877 75.3697L55.8566 75.4445L57.1874 75.4583L57.5666 74.1899L58.3312 71.6316L68.6664 71.7138L69.4843 74.313L69.8736 75.5498L71.1766 75.5441L78.4181 75.5112L80.8876 75.4998L80.0767 73.1801L71.1894 47.7503L70.7767 46.5692ZM61.7056 62.6146C62.0398 61.7088 62.49 60.4845 63.1013 58.8219C63.293 58.3007 63.4683 57.8235 63.6291 57.3861C63.7754 57.8152 63.9346 58.282 64.1076 58.7896C64.2501 59.2078 64.8763 61.0426 65.4134 62.6129C63.8164 62.6129 62.6142 62.6131 61.7056 62.6146Z" fill="#FFE81F"/>
<path d="M72.5178 17.9729V24.247H59.8828V43.4356H52.3499V24.2316L37.6017 24.2733C35.8238 24.2733 35.5855 25.6817 35.5855 26.2214C35.5855 26.8839 36.0201 27.5464 38.4068 30.5518C39.9553 32.5042 41.378 34.4523 41.5655 34.8779C42.589 37.2208 41.2655 40.8712 38.8546 42.3541C37.1362 43.41 37.4298 43.4359 24.6693 43.4359C24.0133 43.4359 23.3246 43.4359 22.5976 43.4359H8.86184V36.3874H30.457L31.0944 35.9464C31.5246 35.6481 31.7738 35.2379 31.8687 34.6763C32.001 33.869 31.9327 33.7637 29.2658 30.7758C26.1137 27.2439 25.7806 26.5989 25.9438 24.3437C26.1291 21.7705 28.4364 18.0323 32.4687 18.0323L72.5178 17.9729ZM74.2825 16.2153L72.5149 16.2179L32.4658 16.2771C30.1589 16.2771 28.0164 17.2683 26.4346 19.068C25.1521 20.5273 24.3104 22.4527 24.1833 24.2183C23.9687 27.1822 24.6547 28.2532 27.9456 31.9407C28.9007 33.0105 29.8089 34.0282 30.112 34.4604C30.1071 34.4777 30.1027 34.4889 30.1001 34.4953C30.0967 34.4979 30.0917 34.5019 30.0846 34.5067L29.9033 34.6322H8.86184H7.09717V36.3872V43.4356V45.1906H8.86184H22.5976H23.6866H24.6693C30.9608 45.1906 34.0661 45.1847 35.8957 45.0513C37.989 44.8989 38.6569 44.5417 39.6575 43.9238L39.7823 43.8468C42.9283 41.9117 44.5496 37.3035 43.1842 34.1781C42.7629 33.222 40.0954 29.8463 39.7925 29.4646C38.9552 28.4101 37.573 26.6698 37.3542 26.1661C37.3595 26.1237 37.3698 26.0799 37.3809 26.0494C37.4172 26.0402 37.487 26.0279 37.6017 26.0279L50.5852 25.9912V43.4352V45.1902H52.3499H59.8828H61.6475V43.4352V26.0015H72.5178H74.2825V24.2466V17.9725V16.2153Z" fill="#FFE81F"/>
<path d="M93.0454 18.1767L101.908 43.6723L94.6799 43.6329L93.5064 39.8135L80.6157 39.7565L79.464 43.4354H72.1034L80.8692 18.1767H93.0454ZM82.7196 34.3272L91.4991 34.3163C91.4993 34.3163 91.4993 34.3165 91.4993 34.3165C91.5293 34.3165 87.2328 21.7681 87.2041 21.7593C87.1728 21.7582 82.6206 34.3272 82.7196 34.3272ZM94.3025 16.4217H93.0454H80.8692H79.6116L79.2013 17.6041L70.4353 42.8631L69.6276 45.1906H72.1036H79.4645H80.7635L81.1495 43.9571L81.913 41.5174L92.1992 41.5628L92.9931 44.1457L93.3727 45.3806L94.6713 45.3878L101.9 45.4273L104.392 45.4409L103.578 43.0989L94.7145 17.6032L94.3025 16.4217ZM85.1712 32.5692C85.7156 31.0276 86.4735 28.915 87.1595 27.0164C87.8098 28.9126 88.5291 31.0188 89.0539 32.5643L85.1712 32.5692Z" fill="#FFE81F"/>
<path d="M117.938 18.1767C123.655 18.1767 127.624 18.2579 128.387 18.3895C130.151 18.6944 131.746 19.6311 132.942 21.0702C134.192 22.5751 134.479 23.2947 134.642 25.3568C134.877 28.2679 133.484 30.7797 130.738 32.4097C129.937 32.8857 129.115 33.3486 128.91 33.4407C128.594 33.5833 128.636 33.7193 129.201 34.3775C129.564 34.8008 130.196 35.4041 130.601 35.7178L131.343 36.2904L145.036 36.4856L145.171 43.4354H136.775C130.281 43.4354 128.203 43.3762 127.594 43.1722C126.683 42.865 124.491 41.0179 120.035 36.8015L116.854 33.7917L116.887 43.4354H108.716V18.1767H117.938ZM116.734 29.5337H121.073C125.295 29.5337 125.427 29.5205 126.029 29.0708C127.106 28.2679 127.487 27.4409 127.373 26.1707C127.256 24.861 126.749 24.1788 125.476 23.6303C124.759 23.3188 124.068 23.2684 120.684 23.2684H116.734V29.5337ZM117.938 16.4217H108.717H106.953V18.1767V43.4354V45.1904H108.717H116.888H118.659L118.653 43.4293L118.634 37.8975L118.819 38.0728C124.33 43.288 125.956 44.4726 127.029 44.8341C127.852 45.1103 129.23 45.1904 136.776 45.1904H145.171H146.97L146.936 43.4016L146.801 36.4519L146.769 34.7552L145.063 34.7309L131.96 34.5442L131.685 34.332C131.598 34.2643 131.492 34.1748 131.378 34.0734C131.477 34.0155 131.567 33.9622 131.645 33.9161C134.954 31.9521 136.689 28.7812 136.403 25.2173C136.212 22.8132 135.78 21.7301 134.303 19.9523C132.85 18.2041 130.857 17.0351 128.689 16.6606C127.485 16.4528 121.436 16.4217 117.938 16.4217ZM118.498 25.0233H120.684C123.779 25.0233 124.392 25.0745 124.769 25.2386C125.486 25.5474 125.559 25.6973 125.615 26.326C125.672 26.9508 125.594 27.2022 124.971 27.6668C124.95 27.6819 124.934 27.6938 124.921 27.7032C124.51 27.7789 122.983 27.7789 121.073 27.7789H118.499L118.498 25.0233Z" fill="#FFE81F"/>
</g>
<defs>
<clipPath id="clip0_9_2834">
<rect width="153" height="92" fill="white" transform="translate(0.5)"/>
</clipPath>
</defs>
</svg>
